<svg width="20" height="20" viewBox="0 0 20 20" fill="none" xmlns="http://www.w3.org/2000/svg">
<path d="M7.15829 12.9667L12.675 7.90835C12.9083 7.70002 12.9 7.3667 12.6583 7.1667L10.9417 5.73337C10.4917 5.35837 10.1333 5.53336 10.1333 6.11669V13.8917C10.1333 14.475 10.5 14.6417 10.9417 14.275L12.6583 12.8417C12.9 12.6417 12.9083 12.3083 12.675 12.1L7.15829 7.04171" stroke="#292D32" stroke-width="0.96" stroke-miterlimit="10" stroke-linecap="round" stroke-linejoin="round"/>
<path d="M9.99999 18.3333C14.6023 18.3333 18.3333 14.6023 18.3333 9.99999C18.3333 5.39761 14.6023 1.66666 9.99999 1.66666C5.39761 1.66666 1.66666 5.39761 1.66666 9.99999C1.66666 14.6023 5.39761 18.3333 9.99999 18.3333Z" stroke="#292D32" stroke-width="0.96" stroke-miterlimit="10" stroke-linecap="round" stroke-linejoin="round"/>
</svg>
