<svg width="17" height="18" viewBox="0 0 17 18" fill="none" xmlns="http://www.w3.org/2000/svg">
<g clip-path="url(#clip0_1_253)">
<path d="M6.41198 0H10.5328C10.7502 0 10.9586 0.0366211 11.1492 0.101074C11.347 0.168457 11.5252 0.268066 11.673 0.389648C11.8227 0.512695 11.9421 0.657715 12.024 0.820313C12.1024 0.977051 12.1469 1.14844 12.1469 1.32715V2.80957C12.1469 2.96338 12.1149 3.11279 12.0543 3.25049C12.0026 3.36768 11.9331 3.479 11.8459 3.57861C12.1861 3.62109 12.5086 3.70605 12.8079 3.82764C13.1446 3.96387 13.4493 4.14404 13.7112 4.35938C14.3205 4.86035 14.6982 5.55176 14.6982 6.31201V12.2007C14.83 12.1641 14.9619 12.1377 15.0919 12.1245C15.2469 12.1084 15.4019 12.1099 15.5534 12.1304C15.7547 12.1567 15.9471 12.2139 16.1199 12.3032C16.2856 12.3896 16.437 12.5054 16.5671 12.6548C16.8254 12.9521 16.9911 13.3857 17 13.9717C17.0071 14.4829 16.8949 15.1099 16.6205 15.8643L16.2482 16.8867C16.2197 16.9644 16.1983 17.0288 16.1805 17.0845C16.1609 17.1431 16.1466 17.1914 16.1342 17.2354C16.1003 17.3481 16.0754 17.436 16.0379 17.5107C15.9988 17.5898 15.9489 17.6528 15.8705 17.7144C15.6674 17.8682 15.4625 17.8682 14.9922 17.8682H14.8959C11.5822 18.1963 5.60492 17.8272 1.95799 17.8696C1.52506 17.8726 1.32018 17.874 1.11886 17.729L1.10638 17.7217C0.935351 17.5942 0.899719 17.4507 0.832018 17.1855C0.819547 17.1387 0.807076 17.0859 0.791041 17.0273C0.775007 16.9688 0.755409 16.8999 0.730467 16.8164L0.420469 15.8071C0.3884 15.7002 0.361677 15.6196 0.334953 15.5391L0.331389 15.5259C0.185298 15.0703 0.0249547 14.5723 1.23126e-05 14.0786C-0.02493 13.5806 0.0908738 13.0884 0.49886 12.6577C0.596847 12.5552 0.705525 12.4673 0.824892 12.394C0.944259 12.3208 1.0761 12.2651 1.21328 12.2256C1.34334 12.189 1.47874 12.167 1.6177 12.1611C1.75489 12.1553 1.89563 12.1655 2.03816 12.1919C2.06666 12.1978 2.09517 12.2036 2.12189 12.2095L2.1308 12.2109V6.31055C2.1308 5.93848 2.22166 5.58106 2.38557 5.25586C2.5566 4.91748 2.80781 4.61279 3.11781 4.35791C3.39217 4.13232 3.71286 3.94482 4.06918 3.80713C4.38452 3.68555 4.72659 3.60205 5.08647 3.56543C5.00274 3.46729 4.93504 3.35889 4.88515 3.24316C4.82636 3.10693 4.79429 2.95898 4.79429 2.80811V1.32715C4.79429 1.14844 4.83883 0.977051 4.91722 0.820313C4.99917 0.657715 5.12032 0.511231 5.2682 0.389648L5.27176 0.386719C5.41963 0.265137 5.59601 0.166992 5.79198 0.101074C5.98618 0.0366211 6.19463 0 6.41198 0ZM11.1546 6.88623C11.2152 6.81006 11.3078 6.76172 11.4076 6.74561C11.5073 6.72803 11.6142 6.74268 11.7051 6.79102L11.7105 6.79395C11.8013 6.84375 11.8601 6.91846 11.8797 7.00049C11.8993 7.08252 11.8833 7.17041 11.8245 7.24512L11.8209 7.24805C11.5555 7.5791 11.3149 7.92774 11.1029 8.29541C10.8909 8.66309 10.7074 9.04834 10.5578 9.4541C10.4081 9.86133 10.2905 10.2891 10.2103 10.7417C10.1302 11.1943 10.0874 11.6704 10.0839 12.1729C10.0839 12.2637 10.0393 12.3457 9.96627 12.4043C9.89322 12.4644 9.79345 12.501 9.68299 12.501C9.57253 12.501 9.47276 12.4644 9.39972 12.4043L9.39616 12.4014C9.32667 12.3428 9.28213 12.2607 9.28213 12.1714C9.28391 11.6353 9.33024 11.1255 9.41753 10.6421C9.50305 10.1587 9.62955 9.69873 9.78989 9.26221C9.95201 8.82422 10.148 8.4082 10.376 8.01416C10.6076 7.62012 10.8678 7.24512 11.1546 6.88623ZM5.14526 7.25098L5.13814 7.24219C5.08113 7.16748 5.06331 7.08106 5.08469 7.00049C5.10429 6.91992 5.1613 6.84522 5.25038 6.79541L5.26107 6.78955C5.35193 6.74268 5.45704 6.72803 5.55503 6.74561C5.6548 6.76318 5.74744 6.81152 5.80802 6.88623C6.09486 7.24512 6.35497 7.62012 6.58301 8.01416C6.81106 8.40967 7.00882 8.82422 7.17094 9.26221C7.33307 9.7002 7.45778 10.1587 7.54329 10.6421C7.62881 11.1255 7.67513 11.6338 7.67691 12.1714C7.67691 12.2622 7.63237 12.3442 7.55933 12.4028C7.48807 12.4629 7.38651 12.4995 7.27784 12.4995C7.16738 12.4995 7.06761 12.4629 6.99634 12.4028C6.9233 12.3428 6.87876 12.2607 6.87876 12.1699C6.87698 11.6675 6.83422 11.1914 6.75405 10.7388C6.67388 10.2861 6.55629 9.8584 6.40664 9.45117C6.25698 9.04541 6.07348 8.66016 5.86147 8.29248C5.65124 7.9292 5.41072 7.58203 5.14526 7.25098ZM13.8965 12.5889V6.31055C13.8965 6.02637 13.827 5.75537 13.7023 5.50781C13.5722 5.25 13.3816 5.01856 13.1446 4.82373C12.9077 4.62891 12.6262 4.47217 12.3126 4.36523C12.0115 4.2627 11.6819 4.20557 11.3363 4.20557H5.49624C5.15061 4.20557 4.82101 4.2627 4.51992 4.36523C4.20636 4.47217 3.92487 4.62891 3.68792 4.82373C3.45097 5.01856 3.26033 5.25 3.13028 5.50781C3.00557 5.75537 2.93608 6.02637 2.93608 6.31055V12.5698C3.16947 12.7324 3.40108 12.9448 3.61844 13.2129C3.81797 13.4575 4.00504 13.749 4.17608 14.0874C4.81032 13.8237 5.46595 13.6289 6.14118 13.5C6.836 13.3667 7.5522 13.3037 8.28978 13.3066C9.0238 13.3096 9.77742 13.3813 10.5488 13.5161C11.3007 13.648 12.0703 13.8398 12.856 14.0918C12.9362 13.7871 13.0662 13.5103 13.2319 13.2686C13.4154 12.9976 13.6453 12.769 13.8965 12.5889ZM2.39448 13.0562C2.36063 13.0459 2.33034 13.0313 2.30184 13.0151C2.27333 12.9976 2.24661 12.9771 2.22345 12.9551C2.16287 12.9243 2.10408 12.898 2.04529 12.8774C1.98471 12.8555 1.92414 12.8394 1.86534 12.8276C1.79586 12.8145 1.72816 12.8101 1.66402 12.8115C1.59989 12.813 1.53753 12.8232 1.47874 12.8394C1.4146 12.8569 1.35403 12.8848 1.29523 12.9214C1.23644 12.958 1.18299 13.002 1.13133 13.0562C0.848053 13.3564 0.77857 13.7344 0.810639 14.1328C0.842708 14.5371 0.981672 14.9648 1.10638 15.3545L1.11173 15.3735C1.1438 15.4761 1.17587 15.5742 1.19725 15.6416L1.50724 16.6509C1.55178 16.7988 1.58742 16.9351 1.61592 17.0464L1.6177 17.0508C1.63552 17.1255 1.64621 17.1782 1.65333 17.2119C1.65333 17.2163 1.65333 17.2178 1.65155 17.2207C1.65512 17.2192 1.66224 17.2178 1.67115 17.2178C1.7246 17.2148 1.81546 17.209 1.95621 17.2075L2.20919 17.2046H14.8817L14.8959 17.2061H14.9904C15.1436 17.2061 15.2416 17.2105 15.2986 17.2134C15.3075 17.2134 15.3146 17.2148 15.3217 17.2178V17.2119C15.3289 17.1841 15.3378 17.1387 15.3574 17.0757L15.3592 17.0728C15.3894 16.9688 15.4286 16.8384 15.4821 16.6934L15.8544 15.6709C16.0932 15.0161 16.2001 14.4829 16.2072 14.0581C16.2161 13.582 16.1039 13.2451 15.9168 13.0298C15.8527 12.9565 15.7796 12.8994 15.6994 12.8569C15.6157 12.813 15.5266 12.7852 15.4322 12.7734C15.3324 12.7603 15.2238 12.7632 15.1133 12.7822C15.0011 12.8013 14.8853 12.835 14.7695 12.8848C14.4612 13.0151 14.1691 13.2451 13.9499 13.5557C13.7522 13.834 13.615 14.1782 13.5793 14.5752L13.5776 14.584C13.5758 14.5986 13.5722 14.6133 13.5687 14.6279V14.6294C13.5633 14.6455 13.558 14.6616 13.5491 14.6777C13.5063 14.7612 13.4261 14.8228 13.3317 14.855C13.2373 14.8872 13.1286 14.8887 13.0271 14.8535C12.1915 14.5635 11.3773 14.3423 10.5863 14.1914C9.79701 14.042 9.03093 13.9644 8.28978 13.96C7.55577 13.957 6.84313 14.0259 6.15543 14.1709C5.46773 14.3159 4.8032 14.5371 4.16361 14.8359L4.13154 14.8491C4.12085 14.8535 4.10838 14.8579 4.09769 14.8608L4.09412 14.8623C3.99079 14.8901 3.88389 14.8828 3.79303 14.8462C3.70039 14.8096 3.62556 14.7437 3.58993 14.6587C3.42602 14.272 3.24252 13.9512 3.04654 13.689C2.83453 13.4136 2.6154 13.2026 2.39448 13.0562ZM15.3307 17.2222L15.3324 17.2236C15.3324 17.2222 15.3324 17.2222 15.3307 17.2222ZM10.5328 0.65918H6.41198C6.3033 0.65918 6.19819 0.676758 6.10198 0.710449C6.00221 0.744141 5.91313 0.793945 5.83831 0.855469L5.83474 0.858399C5.7617 0.919922 5.70112 0.993164 5.66015 1.07373C5.62095 1.15137 5.59779 1.23779 5.59779 1.32861V2.81104C5.59779 2.99414 5.68865 3.16113 5.83652 3.28272L5.84009 3.28565C5.98618 3.40576 6.18928 3.479 6.4102 3.479H10.531C10.7537 3.479 10.9568 3.4043 11.1047 3.28272L11.1083 3.27979C11.2544 3.1582 11.3434 2.99268 11.3434 2.81104V1.32715C11.3434 1.23779 11.3221 1.15137 11.2811 1.07227C11.2401 0.990234 11.1795 0.916992 11.1029 0.855469C11.0281 0.793945 10.9372 0.744141 10.8392 0.710449C10.7466 0.676758 10.6433 0.65918 10.5328 0.65918Z" fill="black"/>
</g>
<defs>
<clipPath id="clip0_1_253">
<rect width="17" height="18" fill="white"/>
</clipPath>
</defs>
</svg>
