<svg width="17" height="18" viewBox="0 0 17 18" fill="none" xmlns="http://www.w3.org/2000/svg">
<g clip-path="url(#clip0_1_243)">
<path d="M8.075 1.5H2.40832C2.23832 1.5 2.125 1.61999 2.125 1.79999V6C2.125 6.18 2.23832 6.29999 2.40832 6.29999H8.075C8.245 6.29999 8.35832 6.18 8.35832 6V1.79999C8.35832 1.61999 8.245 1.5 8.075 1.5ZM7.79168 5.69998H2.69168V2.09998H7.79168V5.69998Z" fill="black"/>
<path d="M8.075 8.10001H2.40832C2.23832 8.10001 2.125 8.21999 2.125 8.39999V14.4C2.125 14.58 2.23832 14.7 2.40832 14.7H8.075C8.245 14.7 8.35832 14.58 8.35832 14.4V8.39999C8.35832 8.21999 8.245 8.10001 8.075 8.10001ZM7.79168 14.1H2.69168V8.70002H7.79168V14.1Z" fill="black"/>
<path d="M12.9767 2.99999C12.8067 2.97 12.6367 3.02998 12.5234 3.15C12.41 3.26999 12.325 3.44999 12.325 3.62999C12.325 3.92998 12.495 4.14 12.75 4.23C13.5434 4.47001 14.5917 6.12 14.5917 6.90001V14.04C14.5917 14.7 14.1384 15.24 13.5717 15.3C13.2317 15.33 12.92 15.24 12.6934 15C12.4667 14.76 12.3251 14.43 12.3251 14.1V8.39999C12.3251 6.85121 11.2017 5.56689 9.77507 5.41512V0.299988C9.77507 0.119988 9.66175 0 9.49174 0H0.991744C0.821744 0 0.708422 0.119988 0.708422 0.299988V16.2H0.425C0.255 16.2 0.141678 16.32 0.141678 16.5V17.7C0.141678 17.88 0.255 18 0.425 18H10.0583C10.2283 18 10.3416 17.88 10.3416 17.7V16.5C10.3416 16.32 10.2283 16.2 10.0583 16.2H9.775V7.23825C10.2624 7.37234 10.625 7.8435 10.625 8.40002V14.01C10.625 15.63 11.7867 16.98 13.26 17.1C13.3167 17.1 13.4017 17.1 13.4583 17.1C14.195 17.1 14.875 16.83 15.385 16.29C15.9517 15.72 16.2917 14.94 16.2917 14.1V7.2H16.575C16.745 7.2 16.8583 7.08001 16.8583 6.90001C16.8583 5.22 14.6767 3.30001 12.9767 2.99999ZM9.775 17.4H0.708322V16.8H0.991645H9.49165H9.77497V17.4H9.775ZM1.275 16.2V0.600012H9.20832V5.70002V6.90001V16.2H1.275ZM16.0083 6.59999C15.8383 6.59999 15.725 6.71998 15.725 6.89998V14.13C15.725 14.79 15.47 15.42 15.0167 15.87C14.5634 16.32 13.9684 16.56 13.3167 16.5C12.1267 16.41 11.1917 15.33 11.1917 14.01V8.39999C11.1917 7.49999 10.5684 6.77999 9.775 6.62998V6.03C10.88 6.18001 11.7583 7.17001 11.7583 8.39999V14.13C11.7583 14.61 11.9566 15.12 12.325 15.45C12.665 15.78 13.1467 15.96 13.6283 15.9C14.4783 15.81 15.1583 15 15.1583 14.04V6.90001C15.1583 5.88002 13.94 3.96 12.8916 3.63002C14.2233 3.84001 16.0083 5.31003 16.2633 6.60002L16.0083 6.59999Z" fill="black"/>
<path d="M3.825 10.2H6.65832C6.82832 10.2 6.94165 10.08 6.94165 9.9C6.94165 9.72 6.82832 9.60001 6.65832 9.60001H3.825C3.655 9.60001 3.54168 9.72 3.54168 9.9C3.54168 10.08 3.655 10.2 3.825 10.2Z" fill="black"/>
<path d="M3.825 11.7H6.65832C6.82832 11.7 6.94165 11.58 6.94165 11.4C6.94165 11.22 6.82832 11.1 6.65832 11.1H3.825C3.655 11.1 3.54168 11.22 3.54168 11.4C3.54168 11.58 3.655 11.7 3.825 11.7Z" fill="black"/>
<path d="M3.825 13.2H6.65832C6.82832 13.2 6.94165 13.08 6.94165 12.9C6.94165 12.72 6.82832 12.6 6.65832 12.6H3.825C3.655 12.6 3.54168 12.72 3.54168 12.9C3.54168 13.08 3.655 13.2 3.825 13.2Z" fill="black"/>
</g>
<defs>
<clipPath id="clip0_1_243">
<rect width="17" height="18" fill="white"/>
</clipPath>
</defs>
</svg>
