<svg width="26" height="18" viewBox="0 0 26 18" fill="none" xmlns="http://www.w3.org/2000/svg">
<path d="M25.5667 5.39995H23.8334C23.6601 5.39995 23.4867 5.53495 23.4434 5.71493L22.2301 9.44995H21.0601L19.8901 7.42495C19.8034 7.28995 19.6734 7.19994 19.5001 7.19994H17.7668V5.84994C17.7668 5.57994 17.5935 5.39995 17.3335 5.39995H14.3V3.59997H15.6C15.86 3.59997 16.0333 3.41999 16.0333 3.14999V0.449983C16.0333 0.179982 15.86 0 15.6 0H7.80002C7.54002 0 7.3667 0.179982 7.3667 0.449983V3.14999C7.3667 3.41999 7.54002 3.59997 7.80002 3.59997H9.10002V5.39995H5.63333C5.50333 5.39995 5.41664 5.44493 5.33001 5.53495C5.24338 5.62497 5.20001 5.71494 5.20001 5.84994V7.19994H2.16669C1.90669 7.19994 1.73337 7.37992 1.73337 7.64992V10.3499H0.866685V8.99997C0.866685 8.72997 0.693369 8.54999 0.433368 8.54999C0.173368 8.54999 0 8.72997 0 8.99997V12.6C0 12.87 0.173317 13.05 0.433317 13.05C0.693318 13.05 0.866634 12.87 0.866634 12.6V11.25H1.73332V14.85C1.73332 15.12 1.90664 15.3 2.16664 15.3H5.41664L7.01996 17.82C7.10665 17.91 7.23665 18 7.36665 18H19.5C19.6734 18 19.8034 17.91 19.89 17.73L21.06 15.3H22.2734L23.4434 17.73C23.53 17.91 23.66 18 23.8334 18H25.5667C25.8267 18 26 17.82 26 17.55V5.84999C26.0001 5.57999 25.8267 5.39995 25.5667 5.39995ZM8.23333 0.899966H15.1667V2.69995H13.8667H9.53334H8.23333V0.899966ZM9.9667 3.59997H13.4334V5.39995H9.9667V3.59997ZM2.60001 14.4V8.09995H5.20001V14.4H2.60001ZM19.1967 17.1H7.58333L6.06665 14.7162V7.64997V6.29997H9.53334H13.8667H16.9V7.64997C16.9 7.91997 17.0734 8.09995 17.3334 8.09995H19.24L20.3667 10.05V14.67L19.1967 17.1ZM21.2334 14.4V10.35H22.1V14.4H21.2334ZM25.1334 17.1H24.0934L22.9667 14.8435V9.90157L24.1367 6.29997H25.1334V17.1Z" fill="black"/>
</svg>
