<svg width="26" height="19" viewBox="0 0 26 19" fill="none" xmlns="http://www.w3.org/2000/svg">
<path d="M12.25 10.2875H5.5C5.05 10.2875 4.75 9.97251 4.75 9.50001C4.75 9.02751 5.05 8.71251 5.5 8.71251H12.25C12.7 8.71251 13 9.02751 13 9.50001C13 9.97251 12.7 10.2875 12.25 10.2875Z" fill="#231815"/>
<path d="M12.25 6.35001H5.5C5.05 6.35001 4.75 6.03501 4.75 5.56251C4.75 5.09001 5.05 4.77501 5.5 4.77501H12.25C12.7 4.77501 13 5.09001 13 5.56251C13 6.03501 12.7 6.35001 12.25 6.35001Z" fill="#231815"/>
<path d="M23.5 18.95H2.5C1.3 18.95 0.25 17.8475 0.25 16.5875V2.4125C0.25 1.1525 1.3 0.0500031 2.5 0.0500031H23.5C24.7 0.0500031 25.75 1.1525 25.75 2.4125V16.5875C25.75 17.8475 24.7 18.95 23.5 18.95ZM2.5 1.625C2.05 1.625 1.75 1.94 1.75 2.4125V16.5875C1.75 17.06 2.05 17.375 2.5 17.375H23.5C23.95 17.375 24.25 17.06 24.25 16.5875V2.4125C24.25 1.94 23.95 1.625 23.5 1.625H2.5Z" fill="#231815"/>
<path d="M20.5 14.225H5.5C5.05 14.225 4.75 13.91 4.75 13.4375C4.75 12.965 5.05 12.65 5.5 12.65H20.5C20.95 12.65 21.25 12.965 21.25 13.4375C21.25 13.91 20.95 14.225 20.5 14.225Z" fill="#231815"/>
<path d="M20.5 10.76H16.6C16.15 10.76 15.85 10.445 15.85 9.97251V5.24751C15.85 4.77501 16.15 4.46001 16.6 4.46001H20.5C20.95 4.46001 21.25 4.77501 21.25 5.24751V9.97251C21.25 10.445 20.95 10.76 20.5 10.76ZM17.35 9.18501H19.75V6.03501H17.35V9.18501Z" fill="#231815"/>
</svg>
