<svg width="29" height="26" viewBox="0 0 29 26" fill="none" xmlns="http://www.w3.org/2000/svg">
<path d="M19.9375 23.764H9.0625C8.26132 23.764 7.49296 23.4787 6.92645 22.9707C6.35993 22.4628 6.04166 21.774 6.04166 21.0557V4.94433C6.04166 4.22603 6.35993 3.53716 6.92645 3.02924C7.49296 2.52133 8.26132 2.23599 9.0625 2.23599H19.9375C20.7387 2.23599 21.507 2.52133 22.0735 3.02924C22.6401 3.53716 22.9583 4.22603 22.9583 4.94433V21.0557C22.9583 21.774 22.6401 22.4628 22.0735 22.9707C21.507 23.4787 20.7387 23.764 19.9375 23.764ZM9.0625 3.31933C8.58179 3.31933 8.12078 3.49053 7.78087 3.79528C7.44096 4.10002 7.25 4.51335 7.25 4.94433V21.0557C7.25 21.4866 7.44096 21.9 7.78087 22.2047C8.12078 22.5095 8.58179 22.6807 9.0625 22.6807H19.9375C20.4182 22.6807 20.8792 22.5095 21.2191 22.2047C21.559 21.9 21.75 21.4866 21.75 21.0557V4.94433C21.75 4.51335 21.559 4.10002 21.2191 3.79528C20.8792 3.49053 20.4182 3.31933 19.9375 3.31933H9.0625Z" fill="black" stroke="black" stroke-width="0.00064"/>
<path d="M14.5 13.6099C13.6635 13.6099 12.8459 13.3875 12.1504 12.9709C11.4549 12.5543 10.9129 11.9621 10.5928 11.2693C10.2727 10.5764 10.1889 9.81404 10.3521 9.07853C10.5153 8.34302 10.9181 7.66741 11.5095 7.13714C12.101 6.60686 12.8545 6.24574 13.6749 6.09944C14.4953 5.95314 15.3456 6.02822 16.1184 6.31521C16.8912 6.60219 17.5517 7.08818 18.0164 7.71171C18.4811 8.33525 18.7292 9.06833 18.7292 9.81825C18.7292 10.8239 18.2836 11.7883 17.4905 12.4994C16.6973 13.2104 15.6216 13.6099 14.5 13.6099ZM14.5 7.10992C13.9025 7.10992 13.3185 7.26876 12.8217 7.56635C12.3249 7.86395 11.9378 8.28693 11.7091 8.78182C11.4805 9.2767 11.4206 9.82125 11.5372 10.3466C11.6538 10.872 11.9415 11.3546 12.3639 11.7333C12.7864 12.1121 13.3247 12.37 13.9107 12.4745C14.4966 12.579 15.104 12.5254 15.656 12.3204C16.208 12.1154 16.6798 11.7683 17.0117 11.3229C17.3437 10.8775 17.5208 10.3539 17.5208 9.81825C17.5208 9.09995 17.2026 8.41108 16.636 7.90317C16.0695 7.39526 15.3012 7.10992 14.5 7.10992Z" fill="black" stroke="black" stroke-width="0.00064"/>
<path d="M18.125 19.9745H10.875C10.7148 19.9745 10.5611 19.9174 10.4478 19.8158C10.3345 19.7143 10.2708 19.5765 10.2708 19.4328C10.2708 19.2892 10.3345 19.1514 10.4478 19.0498C10.5611 18.9482 10.7148 18.8912 10.875 18.8912H18.125C18.2852 18.8912 18.4389 18.9482 18.5522 19.0498C18.6655 19.1514 18.7292 19.2892 18.7292 19.4328C18.7292 19.5765 18.6655 19.7143 18.5522 19.8158C18.4389 19.9174 18.2852 19.9745 18.125 19.9745Z" fill="black" stroke="black" stroke-width="0.00064"/>
</svg>
