<svg width="18" height="18" viewBox="0 0 18 18" fill="none" xmlns="http://www.w3.org/2000/svg">
<g clip-path="url(#clip0_27_20)">
<path fill-rule="evenodd" clip-rule="evenodd" d="M17.4929 8.25726C17.6698 8.80044 17.7947 9.36162 17.8646 9.92703C17.909 10.2987 17.9323 10.6693 17.9323 11.0504C17.9323 11.4316 17.909 11.8022 17.8646 12.1728C17.6676 13.7674 17.0376 15.2889 16.0423 16.5733L15.2059 15.9253C16.0847 14.7913 16.6406 13.4487 16.8142 12.0447C16.8534 11.7164 16.8735 11.3882 16.8735 11.0504C16.8735 10.7127 16.8534 10.3844 16.8132 10.0551C16.7528 9.55855 16.6427 9.06409 16.486 8.58655L17.4929 8.25726ZM1.05036 12.0447C1.224 13.4487 1.77988 14.7913 2.6587 15.9253L1.82224 16.5733C0.826941 15.2889 0.196941 13.7674 0 12.1739L1.05036 12.0447ZM17.0281 4.28054L17.7767 5.03018L9.46175 13.3451L4.67588 8.55924L5.42446 7.81065L9.46176 11.8479L17.0281 4.28054H17.0281ZM1.82223 5.52762L2.6587 6.17562C1.77989 7.30962 1.224 8.65221 1.05036 10.0562L0 9.92702C0.196941 8.33349 0.826941 6.81196 1.82224 5.52761L1.82223 5.52762ZM10.056 2.11831C11.6495 2.3142 13.171 2.94526 14.4554 3.94054L13.8074 4.77702C12.6723 3.8982 11.3308 3.34231 9.92679 3.16866L10.056 2.11831ZM7.80882 2.11821L7.938 3.16856C6.534 3.34219 5.19141 3.89809 4.05741 4.77691L3.40941 3.94044C4.69377 2.94514 6.21531 2.31514 7.80883 2.11819L7.80882 2.11821Z" fill="black" stroke="black" stroke-width="0.00064"/>
</g>
<defs>
<clipPath id="clip0_27_20">
<rect width="18" height="18" fill="white"/>
</clipPath>
</defs>
</svg>
