<svg width="18" height="20" viewBox="0 0 18 20" fill="none" xmlns="http://www.w3.org/2000/svg">
<path d="M16.8155 14.456C17.5916 13.1022 18 11.5689 18 10.0084V9.99769C18.002 8.42443 17.5888 6.8785 16.802 5.5161C16.8003 5.51193 16.7983 5.50788 16.796 5.50398C16.7927 5.49793 16.7885 5.49233 16.7848 5.48628C15.997 4.13368 14.8723 3.00818 13.5203 2.21944C13.5142 2.21525 13.5081 2.21105 13.5016 2.20732L13.489 2.2008C12.1304 1.41744 10.5903 1.00345 9.02194 1.00002C7.45361 0.996588 5.91172 1.40383 4.54962 2.18123C4.53362 2.18783 4.51805 2.19546 4.50303 2.20406C4.4867 2.21358 4.47113 2.22433 4.45643 2.23621C3.13423 3.01496 2.03147 4.11676 1.25157 5.43828C1.23505 5.45674 1.22053 5.47689 1.20823 5.49839C1.19636 5.51881 1.18653 5.54035 1.17888 5.56269C0.421925 6.89191 0.0185982 8.39308 0.00745563 9.92267C-0.00248521 9.97219 -0.00248521 10.0232 0.00745563 10.0727C0.0188855 11.5969 0.419888 13.0927 1.17235 14.4182C1.18855 14.4743 1.21832 14.5255 1.25902 14.5674C2.0326 15.8736 3.12216 16.9645 4.42754 17.7396C4.4488 17.7604 4.4726 17.7784 4.49837 17.7932C4.52309 17.8073 4.54936 17.8186 4.57665 17.8267C5.90228 18.5789 7.39809 18.9798 8.92218 18.9916C8.97186 19.0016 9.02301 19.0016 9.07269 18.9916C10.603 18.9821 12.1053 18.5797 13.4355 17.823C13.4571 17.8156 13.478 17.8063 13.4979 17.795C13.5193 17.7828 13.5394 17.7684 13.558 17.7522C14.879 16.9728 15.9807 15.8711 16.7601 14.5501C16.7724 14.5355 16.7834 14.5199 16.7932 14.5035C16.8016 14.4882 16.8091 14.4723 16.8155 14.456ZM13.4401 16.9517L13.2029 16.5407C13.1535 16.455 13.0721 16.3925 12.9766 16.3669C12.8811 16.3413 12.7793 16.3547 12.6937 16.4042C12.608 16.4536 12.5455 16.535 12.5199 16.6305C12.4943 16.726 12.5077 16.8278 12.5571 16.9135L12.7943 17.3244C11.7334 17.876 10.5646 18.1886 9.36997 18.24V17.7657C9.36997 17.6668 9.33069 17.572 9.26079 17.5021C9.19088 17.4322 9.09606 17.3929 8.9972 17.3929C8.89834 17.3929 8.80352 17.4322 8.73361 17.5021C8.66371 17.572 8.62443 17.6668 8.62443 17.7657V18.2396C7.43012 18.1859 6.262 17.8717 5.20197 17.3188L5.43821 16.9102C5.46268 16.8678 5.47857 16.821 5.48495 16.7724C5.49134 16.7239 5.4881 16.6746 5.47542 16.6273C5.46274 16.58 5.44088 16.5356 5.41107 16.4968C5.38125 16.458 5.34409 16.4254 5.30168 16.4009C5.25928 16.3764 5.21246 16.3605 5.16392 16.3542C5.11538 16.3478 5.06605 16.351 5.01876 16.3637C4.97147 16.3764 4.92713 16.3982 4.88829 16.428C4.84945 16.4579 4.81686 16.495 4.79239 16.5374L4.55708 16.9437C3.55213 16.2977 2.69808 15.4429 2.05302 14.4373L2.46073 14.202C2.50313 14.1776 2.5403 14.145 2.57011 14.1061C2.59992 14.0673 2.62179 14.023 2.63447 13.9757C2.64715 13.9284 2.65039 13.879 2.644 13.8305C2.63762 13.782 2.62173 13.7352 2.59726 13.6927C2.57278 13.6503 2.54019 13.6132 2.50135 13.5834C2.46251 13.5536 2.41818 13.5317 2.37088 13.519C2.32359 13.5063 2.27427 13.5031 2.22572 13.5095C2.17718 13.5159 2.13037 13.5317 2.08796 13.5562L1.67978 13.792C1.12765 12.7317 0.814332 11.5634 0.761843 10.3691H1.23572C1.33459 10.3691 1.4294 10.3298 1.49931 10.2599C1.56922 10.19 1.60849 10.0952 1.60849 9.99629C1.60849 9.89743 1.56922 9.80261 1.49931 9.73271C1.4294 9.6628 1.33459 9.62353 1.23572 9.62353H0.761843C0.814332 8.42893 1.12764 7.2603 1.67978 6.19966L2.09122 6.4373C2.17686 6.48673 2.27863 6.50012 2.37415 6.47451C2.46966 6.44891 2.55109 6.38641 2.60052 6.30077C2.64995 6.21513 2.66334 6.11336 2.63773 6.01785C2.61213 5.92234 2.54963 5.84091 2.46399 5.79148L2.05348 5.55431C2.69911 4.54818 3.55398 3.69299 4.55987 3.04698L4.79798 3.45982C4.83074 3.51657 4.87789 3.56368 4.93466 3.5964C4.99143 3.62912 5.05583 3.6463 5.12135 3.64621C5.18676 3.64614 5.25099 3.62887 5.3076 3.59612C5.36422 3.56338 5.41122 3.51631 5.44389 3.45966C5.47657 3.403 5.49376 3.33875 5.49374 3.27334C5.49372 3.20794 5.4765 3.1437 5.4438 3.08706L5.20523 2.67375C6.26625 2.12068 7.43559 1.80687 8.63096 1.75441V2.23621C8.63096 2.33508 8.67023 2.42989 8.74014 2.4998C8.81005 2.56971 8.90486 2.60898 9.00372 2.60898C9.10259 2.60898 9.1974 2.56971 9.26731 2.4998C9.33722 2.42989 9.37649 2.33508 9.37649 2.23621V1.75581C10.5722 1.80827 11.7418 2.12207 12.8032 2.67515L12.5627 3.09171C12.5382 3.13412 12.5224 3.18093 12.516 3.22947C12.5096 3.27802 12.5128 3.32734 12.5255 3.37464C12.5382 3.42193 12.56 3.46626 12.5899 3.5051C12.6197 3.54394 12.6568 3.57653 12.6992 3.60101C12.7416 3.62548 12.7885 3.64137 12.837 3.64775C12.8855 3.65414 12.9349 3.6509 12.9822 3.63822C13.0295 3.62555 13.0738 3.60368 13.1126 3.57387C13.1515 3.54406 13.1841 3.50689 13.2085 3.46448L13.4485 3.04885C14.4549 3.69556 15.3101 4.55154 15.9558 5.5585L15.5402 5.79847C15.4546 5.8479 15.3921 5.92933 15.3665 6.02484C15.3409 6.12035 15.3542 6.22212 15.4037 6.30776C15.4531 6.3934 15.5345 6.4559 15.63 6.4815C15.7256 6.50711 15.8273 6.49372 15.913 6.44429L16.3291 6.20385C16.882 7.26558 17.1956 8.43552 17.2479 9.63145H16.7652C16.6663 9.63145 16.5715 9.67072 16.5016 9.74063C16.4317 9.81054 16.3924 9.90535 16.3924 10.0042C16.3924 10.1031 16.4317 10.1979 16.5016 10.2678C16.5715 10.3377 16.6663 10.377 16.7652 10.377H17.2479C17.1943 11.5724 16.8796 12.7415 16.3258 13.8022L15.912 13.5632C15.8696 13.5387 15.8228 13.5228 15.7743 13.5165C15.7257 13.5101 15.6764 13.5133 15.6291 13.526C15.5818 13.5387 15.5375 13.5605 15.4986 13.5903C15.4598 13.6202 15.4272 13.6573 15.4027 13.6997C15.3783 13.7421 15.3624 13.789 15.356 13.8375C15.3496 13.886 15.3528 13.9354 15.3655 13.9827C15.3782 14.0299 15.4001 14.0743 15.4299 14.1131C15.4597 14.152 15.4969 14.1846 15.5393 14.209L15.9516 14.4471C15.3042 15.4528 14.4476 16.307 13.4401 16.9517ZM9.00372 3.15928C5.23179 3.15928 2.16345 6.22762 2.16345 9.99956C2.16345 13.7715 5.23179 16.8398 9.00372 16.8398C12.7757 16.8398 15.844 13.7715 15.844 9.99956C15.844 6.22762 12.7747 3.15741 9.00372 3.15741V3.15928ZM9.00372 16.0943C5.64276 16.0943 2.90898 13.3601 2.90898 9.99956C2.90898 8.38313 3.5511 6.83291 4.69409 5.68992C5.83708 4.54694 7.3873 3.90481 9.00372 3.90481C10.6202 3.90481 12.1704 4.54694 13.3134 5.68992C14.4563 6.83291 15.0985 8.38313 15.0985 9.99956C15.0985 13.3582 12.3647 16.0924 9.00372 16.0924V16.0943ZM9.00372 8.76476C8.75941 8.76476 8.52059 8.83721 8.31745 8.97294C8.11431 9.10867 7.95599 9.3016 7.8625 9.52731C7.769 9.75302 7.74454 10.0014 7.7922 10.241C7.83986 10.4806 7.95751 10.7007 8.13027 10.8735C8.30302 11.0462 8.52312 11.1639 8.76274 11.2115C9.00235 11.2592 9.25072 11.2347 9.47644 11.1412C9.70215 11.0478 9.89507 10.8894 10.0308 10.6863C10.1665 10.4832 10.239 10.2443 10.239 10C10.2391 9.6722 10.1091 9.35775 9.87743 9.12577C9.6458 8.89379 9.33154 8.76327 9.00372 8.7629V8.76476ZM9.00372 10.4888C8.90687 10.4888 8.81218 10.4601 8.73165 10.4063C8.65111 10.3525 8.58835 10.276 8.55128 10.1865C8.51421 10.097 8.50452 9.99855 8.52341 9.90355C8.54231 9.80855 8.58895 9.72129 8.65744 9.6528C8.72593 9.58431 8.81319 9.53767 8.90818 9.51878C9.00318 9.49988 9.10165 9.50958 9.19113 9.54664C9.28062 9.58371 9.3571 9.64648 9.41091 9.72701C9.46473 9.80755 9.49345 9.90223 9.49345 9.99909C9.49295 10.1287 9.44117 10.2529 9.34941 10.3445C9.25765 10.4361 9.13337 10.4876 9.00372 10.4879V10.4888ZM13.8255 11.711C14.2175 10.6052 14.2175 9.39814 13.8255 8.29228C13.7919 8.19909 13.7551 8.1059 13.716 8.01271C13.5122 7.52902 13.2348 7.0798 12.8935 6.681C12.3629 6.05675 11.6898 5.56935 10.9311 5.25996C10.1724 4.95056 9.3504 4.82826 8.5345 4.90336C8.37934 4.91734 8.22511 4.93831 8.07274 4.96627C6.91821 5.18097 5.87222 5.78505 5.10924 6.67773C4.70219 7.15228 4.38626 7.6979 4.17732 8.28716C3.78404 9.39504 3.78404 10.6045 4.17732 11.7124C4.20388 11.7865 4.23137 11.8597 4.26119 11.9319C4.46752 12.4381 4.75438 12.9077 5.11064 13.3223C5.58985 13.8861 6.18598 14.3389 6.85766 14.6493C7.52935 14.9598 8.26052 15.1203 9.00046 15.12H9.12254C10.1589 15.0928 11.1628 14.7527 12.0022 14.1442C12.8416 13.5358 13.4772 12.6875 13.8255 11.711ZM12.9802 11.8131C12.976 11.8229 12.9718 11.8326 12.9672 11.842C12.9429 11.8946 12.9173 11.9463 12.8912 11.9976L12.8749 12.0288C12.8196 12.1344 12.7597 12.2377 12.6951 12.3387L12.6769 12.3676C12.6452 12.4169 12.6126 12.4654 12.5786 12.5129C12.5734 12.5209 12.5678 12.5283 12.5623 12.5358C12.5478 12.5563 12.5324 12.5758 12.5157 12.5959L10.0507 11.1728C9.99409 11.1401 9.92985 11.1229 9.86445 11.1229C9.79904 11.1229 9.73479 11.1401 9.67813 11.1727C9.62148 11.2054 9.57441 11.2524 9.54167 11.309C9.50892 11.3656 9.49165 11.4299 9.49158 11.4953V14.3465C9.46549 14.3497 9.43986 14.353 9.41377 14.3553H9.3956C9.33409 14.3609 9.27212 14.3651 9.20921 14.3684H9.19011C9.06399 14.374 8.93771 14.374 8.81128 14.3684H8.79264C8.73067 14.3656 8.6687 14.3614 8.60626 14.3563H8.58809C8.56199 14.3539 8.53637 14.3502 8.51074 14.3474V11.4944C8.51067 11.4289 8.4934 11.3647 8.46065 11.3081C8.42791 11.2515 8.38085 11.2045 8.32419 11.1718C8.26753 11.1391 8.20328 11.1219 8.13788 11.122C8.07247 11.122 8.00823 11.1392 7.95159 11.1719L5.48201 12.5977C5.46756 12.5782 5.45219 12.5586 5.43541 12.5381L5.41864 12.5148C5.38462 12.4682 5.35247 12.4188 5.32078 12.3699L5.30168 12.3405C5.26953 12.2902 5.23831 12.239 5.20849 12.1877C5.17867 12.1364 5.14978 12.0838 5.12229 12.0311L5.10598 12.0004C5.07942 11.9487 5.05379 11.8969 5.02956 11.8443L5.01698 11.8163C5.00673 11.7949 4.99788 11.773 4.98856 11.7511L7.45814 10.3243C7.51485 10.2916 7.56194 10.2446 7.59468 10.1879C7.62743 10.1312 7.64467 10.0669 7.64467 10.0014C7.64467 9.93596 7.62743 9.87165 7.59468 9.81496C7.56194 9.75828 7.51485 9.71122 7.45814 9.67851L4.98856 8.25174C4.99788 8.23031 5.00673 8.20841 5.01651 8.18698C5.02071 8.17766 5.02537 8.16787 5.02956 8.15809C5.05426 8.1059 5.07942 8.05418 5.10598 8.00292L5.12275 7.97124C5.14978 7.91905 5.1782 7.86733 5.20756 7.81607C5.23738 7.76482 5.2686 7.71403 5.30075 7.6637L5.31985 7.63388C5.35154 7.58729 5.38416 7.53696 5.4177 7.48943C5.4233 7.48151 5.42935 7.47359 5.43494 7.4652C5.44939 7.44517 5.4643 7.4256 5.47921 7.40603L7.94879 8.83186C8.00547 8.86458 8.06976 8.88181 8.1352 8.8818C8.20064 8.8818 8.26493 8.86457 8.3216 8.83184C8.37827 8.79911 8.42532 8.75205 8.45803 8.69537C8.49074 8.63869 8.50796 8.57439 8.50794 8.50895V5.65728L8.57458 5.64983L8.60766 5.64657C8.66404 5.64191 8.72089 5.63818 8.77773 5.63538H8.8192C8.87232 5.63538 8.92544 5.63212 8.97856 5.63166H9.00046C9.05731 5.63166 9.11416 5.63166 9.171 5.63538H9.21341C9.27072 5.63818 9.32756 5.64191 9.38441 5.64703L9.41656 5.6503L9.48692 5.65822V8.50895C9.48691 8.57439 9.50412 8.63869 9.53683 8.69537C9.56954 8.75205 9.6166 8.79911 9.67327 8.83184C9.72994 8.86457 9.79423 8.8818 9.85967 8.8818C9.92511 8.88181 9.9894 8.86458 10.0461 8.83186L12.511 7.40882C12.5259 7.42839 12.5408 7.44796 12.5553 7.468C12.5609 7.47592 12.5669 7.48384 12.5725 7.49223C12.6061 7.53883 12.6387 7.58542 12.6699 7.63668L12.689 7.6665C12.7211 7.71682 12.7524 7.76761 12.7822 7.81933C12.812 7.87105 12.8404 7.92324 12.8684 7.9759L12.8842 8.00665C12.9109 8.05853 12.9366 8.11071 12.9611 8.16321L12.9737 8.1907C12.9835 8.21214 12.9923 8.2345 13.0021 8.2564L10.5358 9.67991C10.4791 9.71261 10.432 9.75968 10.3993 9.81636C10.3665 9.87305 10.3493 9.93735 10.3493 10.0028C10.3493 10.0683 10.3665 10.1326 10.3993 10.1893C10.432 10.246 10.4791 10.293 10.5358 10.3257L13.0077 11.7474C12.9993 11.7716 12.99 11.7907 12.9802 11.8121V11.8131ZM12.0143 13.1643C11.5122 13.6432 10.9038 13.9963 10.239 14.1946V12.1402L12.0143 13.1643ZM7.76893 14.1946C7.10295 13.9983 6.49296 13.647 5.98897 13.1695L7.76893 12.1444V14.1946ZM4.62697 10.001C4.62699 9.65419 4.66828 9.30865 4.74999 8.97165L6.53321 10.001L4.74999 11.0303C4.66828 10.6933 4.62699 10.3477 4.62697 10.001ZM5.98944 6.83243C6.49325 6.35489 7.10309 6.00359 7.76893 5.80732V7.8636L5.98944 6.83243ZM10.239 5.80732C10.9036 6.00548 11.5118 6.3582 12.0138 6.83663L10.239 7.86174V5.80732ZM11.4742 10.001L13.2514 8.97584C13.4145 9.64952 13.4145 10.3524 13.2514 11.0261L11.4742 10.001Z" fill="black" stroke="black" stroke-width="0.00064"/>
</svg>
