<svg width="17" height="18" viewBox="0 0 17 18" fill="none" xmlns="http://www.w3.org/2000/svg">
<g clip-path="url(#clip0_1_256)">
<path d="M15.5833 14.4257V9V3.57434C16.3846 3.43037 17 2.6878 17 1.8C17 0.81 16.235 0 15.3 0C14.365 0 13.6 0.81 13.6 1.8C13.6 2.6878 14.2154 3.43037 15.0167 3.57434V8.70001H11.05V3.57434C11.8513 3.43037 12.4667 2.6878 12.4667 1.8C12.4667 0.81 11.7017 0 10.7667 0C9.83168 0 9.06668 0.81 9.06668 1.8C9.06668 2.6878 9.68203 3.43037 10.4834 3.57434V8.70001H6.51668V3.57434C7.318 3.43037 7.93336 2.6878 7.93336 1.8C7.93336 0.81 7.16836 0 6.23336 0C5.29836 0 4.53336 0.81 4.53336 1.8C4.53336 2.6878 5.14871 3.43037 5.95003 3.57434V8.70001H1.98332V3.57434C2.78465 3.43037 3.4 2.6878 3.4 1.8C3.4 0.81 2.635 0 1.7 0C0.765 0 0 0.81 0 1.8C0 2.6878 0.615353 3.43037 1.41668 3.57434V9C1.41668 9.18 1.53 9.29999 1.7 9.29999H5.95V14.4257C5.14868 14.5696 4.53332 15.3122 4.53332 16.2C4.53332 17.19 5.29832 18 6.23332 18C7.16832 18 7.93332 17.19 7.93332 16.2C7.93332 15.3122 7.31797 14.5696 6.51664 14.4257V9.29999H10.4833V14.4257C9.682 14.5696 9.06664 15.3122 9.06664 16.2C9.06664 17.19 9.83164 18 10.7666 18C11.7016 18 12.4666 17.19 12.4666 16.2C12.4666 15.3122 11.8513 14.5696 11.05 14.4257V9.29999H15.0166V14.4257C14.2153 14.5696 13.6 15.3122 13.6 16.2C13.6 17.19 14.365 18 15.3 18C16.235 18 17 17.19 17 16.2C17 15.3122 16.3846 14.5696 15.5833 14.4257ZM14.1667 1.8C14.1667 1.14001 14.6767 0.600012 15.3 0.600012C15.9233 0.600012 16.4333 1.14001 16.4333 1.8C16.4333 2.45999 15.9233 2.99999 15.3 2.99999C14.6767 2.99999 14.1667 2.45999 14.1667 1.8ZM9.63332 1.8C9.63332 1.14001 10.1433 0.600012 10.7666 0.600012C11.39 0.600012 11.9 1.14001 11.9 1.8C11.9 2.45999 11.39 2.99999 10.7666 2.99999C10.1433 2.99999 9.63332 2.45999 9.63332 1.8ZM5.1 1.8C5.1 1.14001 5.61 0.600012 6.23332 0.600012C6.85664 0.600012 7.36664 1.14001 7.36664 1.8C7.36664 2.45999 6.85664 2.99999 6.23332 2.99999C5.61 2.99999 5.1 2.45999 5.1 1.8ZM0.566678 1.8C0.566678 1.14001 1.07668 0.600012 1.7 0.600012C2.32332 0.600012 2.83332 1.14001 2.83332 1.8C2.83332 2.45999 2.32332 2.99999 1.7 2.99999C1.07668 2.99999 0.566678 2.45999 0.566678 1.8ZM7.36668 16.2C7.36668 16.86 6.85668 17.4 6.23336 17.4C5.61003 17.4 5.10003 16.86 5.10003 16.2C5.10003 15.54 5.61003 15 6.23336 15C6.85668 15 7.36668 15.54 7.36668 16.2ZM11.9 16.2C11.9 16.86 11.39 17.4 10.7667 17.4C10.1434 17.4 9.63336 16.86 9.63336 16.2C9.63336 15.54 10.1434 15 10.7667 15C11.39 15 11.9 15.54 11.9 16.2ZM15.3 17.4C14.6767 17.4 14.1667 16.86 14.1667 16.2C14.1667 15.54 14.6767 15 15.3 15C15.9233 15 16.4333 15.54 16.4333 16.2C16.4333 16.86 15.9233 17.4 15.3 17.4Z" fill="black"/>
</g>
<defs>
<clipPath id="clip0_1_256">
<rect width="17" height="18" fill="white"/>
</clipPath>
</defs>
</svg>
